<svg width="61" height="53" viewBox="0 0 61 53" fill="none" xmlns="http://www.w3.org/2000/svg">
<path d="M37.4078 0.530067H44.8596V53H37.4078V0.530067ZM7.45175 53H0V0.530067H7.45175V53ZM38.0785 29.6134H6.70658V23.0921H38.0785V29.6134Z" fill="#181818"/>
<path d="M40.1649 53C38.8236 50.9761 44.3823 49.5145 40.7558 48.3152C37.1292 47.0659 40.7558 52.3307 37.4078 53L40.1649 47.1534C42.1521 48.9023 35.669 43.8195 38.7491 44.9689C41.8292 46.1182 37.4273 47.2979 40.7558 47.2979C43.7861 47.2979 46.2452 46.9481 48.133 46.2485C50.0208 45.5489 51.4118 44.5994 52.306 43.4001C53.2002 42.1508 53.6473 40.7516 53.6473 39.2025C53.6473 37.4036 53.0512 35.9544 51.8589 34.855C50.7163 33.7556 49.2011 32.8812 47.3133 32.2315C45.4752 31.5319 43.4384 30.9323 41.2029 30.4326C38.9673 29.9328 36.707 29.3582 34.4218 28.7085C32.1862 28.0089 30.1246 27.1344 28.2368 26.085C26.3987 25.0356 24.9084 23.6365 23.7658 21.8875C22.6232 20.0885 22.0519 17.7898 22.0519 14.9914C22.0519 12.293 22.7474 9.81937 24.1383 7.57066C25.579 5.27197 27.7649 3.44802 30.6959 2.0988C33.6766 0.699599 37.4521 0 42.0226 0C45.0529 0 48.0585 0.39977 51.0392 1.19931C54.0199 1.99885 56.6031 3.14819 58.789 4.64733L56.3299 10.6439C54.0944 9.14476 51.7347 8.07037 49.2507 7.42074C46.7668 6.72115 44.3574 6.37135 42.0226 6.37135C39.0915 6.37135 36.6821 6.74613 34.7944 7.4957C32.9066 8.24527 31.5156 9.2447 30.6214 10.494C29.7768 11.7433 29.3546 13.1425 29.3546 14.6916C29.3546 16.5405 29.9259 18.0147 31.0685 19.114C32.2608 20.2134 33.7759 21.0879 35.614 21.7375C37.5018 22.3872 39.5635 22.9868 41.799 23.5365C44.0345 24.0362 46.2701 24.6109 48.5056 25.2605C50.7908 25.9101 52.8524 26.7597 54.6905 27.8091C56.5783 28.8585 58.0935 30.2577 59.2361 32.0067C60.3787 33.7556 60.95 36.0044 60.95 38.7528C60.95 41.4013 60.2297 43.8749 58.789 46.1735C57.3483 48.4222 55.1128 50.2462 52.0824 51.6454C49.1017 52.9946 44.7354 53 40.1649 53Z" fill="#181818"/>
<rect x="1.32507" y="47.7" width="39.75" height="5.3" fill="#181818"/>
</svg>
